<?xml version="1.0" standalone="no"?>
<!DOCTYPE svg PUBLIC "-//W3C//DTD SVG 20010904//EN"
 "http://www.w3.org/TR/2001/REC-SVG-20010904/DTD/svg10.dtd">
<svg version="1.0" xmlns="http://www.w3.org/2000/svg"
 width="2000.000000pt" height="2000.000000pt" viewBox="0 0 2000.000000 2000.000000"
 preserveAspectRatio="xMidYMid meet">
<metadata>
Created by potrace 1.14, written by Peter Selinger 2001-2017
</metadata>
<g transform="translate(0.000000,2000.000000) scale(0.100000,-0.100000)"
fill="#000000" stroke="none">
<path d="M9739 18306 c-3 -3 -29 -8 -59 -11 -46 -5 -98 -15 -270 -50 -38 -8
-112 -30 -209 -62 -477 -158 -905 -440 -1261 -830 -88 -96 -91 -100 -200 -244
-257 -342 -456 -763 -575 -1213 -19 -72 -36 -142 -39 -156 -3 -14 -7 -36 -10
-50 -20 -89 -53 -291 -61 -371 -2 -24 -7 -64 -10 -89 -8 -69 -14 -152 -20
-304 -5 -114 -4 -137 7 -129 7 6 66 13 132 17 65 3 121 8 125 10 3 2 24 7 45
10 77 12 222 68 300 114 175 105 310 280 410 532 27 70 92 287 106 360 5 25
11 54 14 65 19 85 51 242 86 420 50 257 47 241 71 345 11 47 22 92 24 100 60
258 198 564 334 740 49 64 188 200 241 235 25 17 51 35 58 42 19 18 249 129
307 148 70 23 231 63 285 70 25 3 52 8 60 10 72 18 469 26 630 12 227 -19 426
-71 607 -157 364 -173 600 -480 749 -975 23 -76 78 -293 87 -345 3 -14 12 -59
20 -100 9 -41 18 -88 21 -105 3 -16 10 -55 16 -85 6 -30 13 -68 16 -85 6 -34
62 -302 74 -355 105 -463 285 -754 550 -892 138 -72 260 -103 455 -115 55 -3
106 -10 114 -16 11 -10 12 13 7 138 -4 83 -8 170 -11 195 -8 95 -16 176 -20
200 -2 14 -7 45 -10 70 -23 189 -101 526 -170 735 -296 893 -923 1605 -1720
1955 -143 62 -296 115 -436 149 -128 31 -150 36 -228 47 -25 4 -55 9 -66 12
-25 6 -570 14 -576 8z"/>
<path d="M8939 15186 c-2 -2 -34 -6 -71 -9 -37 -3 -71 -8 -75 -10 -5 -3 -26
-8 -48 -11 -119 -19 -297 -102 -380 -178 -86 -78 -138 -177 -149 -280 l-3 -38
68 0 c68 0 69 0 70 28 1 45 8 68 31 109 55 92 170 168 327 214 62 18 82 22
201 39 73 11 292 4 355 -10 28 -6 59 -13 70 -16 102 -20 221 -89 256 -148 l19
-33 56 15 c31 9 58 22 61 29 7 19 -53 108 -97 143 -127 100 -337 158 -581 159
-59 0 -108 -2 -110 -3z"/>
<path d="M10730 15170 c-151 -28 -198 -43 -290 -94 -90 -50 -191 -171 -163
-196 4 -4 32 -15 61 -23 l53 -15 14 28 c35 68 160 136 306 165 133 28 372 25
504 -4 22 -5 56 -12 75 -16 19 -4 40 -11 45 -15 6 -4 27 -13 47 -19 43 -14
154 -83 183 -114 51 -55 82 -118 87 -180 2 -28 3 -28 68 -25 74 3 72 1 54 90
-40 196 -260 358 -564 414 -128 24 -364 26 -480 4z"/>
<path d="M9138 14725 c-2 -1 -30 -5 -63 -8 -117 -11 -290 -79 -415 -162 -66
-44 -120 -96 -120 -116 0 -5 115 -9 278 -9 194 0 317 -5 412 -16 155 -19 207
-21 234 -11 17 7 18 15 13 72 -12 125 -82 207 -202 234 -48 11 -131 21 -137
16z"/>
<path d="M10828 14725 c-2 -2 -23 -5 -48 -9 -90 -11 -146 -39 -193 -96 -30
-35 -57 -116 -57 -170 0 -41 24 -59 70 -55 14 2 59 6 100 10 41 4 84 9 95 12
11 3 166 7 345 10 179 3 327 7 329 9 10 9 -36 59 -92 100 -145 107 -332 176
-509 188 -21 2 -39 2 -40 1z"/>
<path d="M7018 14703 c-11 -21 3 -630 17 -797 3 -28 7 -76 10 -107 6 -75 18
-168 30 -249 2 -14 7 -50 10 -80 4 -30 9 -58 11 -61 2 -4 6 -24 9 -45 11 -70
66 -267 96 -344 103 -257 307 -667 452 -905 238 -393 409 -582 717 -795 140
-97 201 -149 253 -219 70 -92 78 -101 152 -176 60 -60 215 -185 229 -185 3 0
27 -13 53 -28 27 -16 78 -41 113 -57 36 -15 79 -34 96 -41 17 -8 83 -27 145
-43 189 -49 333 -64 589 -65 234 0 355 12 527 50 351 78 624 248 830 519 69
90 139 160 263 261 214 174 353 305 455 429 28 33 52 62 56 65 27 25 289 408
289 423 0 3 19 36 42 73 56 94 225 431 291 584 49 113 87 222 101 290 3 14 10
43 15 65 5 22 13 60 16 85 4 24 8 47 10 50 2 3 6 30 10 60 4 30 9 64 10 75 2
11 6 47 10 80 4 33 8 71 10 85 4 24 10 91 20 210 16 182 29 592 25 760 -1 40
-5 33 -36 -75 -169 -575 -405 -1093 -653 -1435 -226 -312 -488 -506 -727 -536
-183 -24 -288 7 -469 137 -190 137 -314 206 -436 244 l-56 18 33 29 c57 50 67
140 28 255 -25 75 -52 121 -93 162 -74 74 -174 53 -162 -34 4 -25 30 -55 47
-55 21 0 63 -71 80 -131 23 -90 22 -94 -53 -131 -68 -33 -68 -33 -188 -29
-123 5 -390 5 -595 1 -123 -3 -179 10 -198 47 -6 10 -10 54 -10 97 l0 79 64
63 c71 70 79 97 41 132 -30 28 -49 28 -101 -3 -53 -31 -88 -68 -117 -124 -19
-36 -23 -63 -25 -139 -2 -104 8 -154 38 -192 l19 -25 -23 -9 c-81 -32 -237
-102 -258 -117 -168 -113 -310 -204 -348 -223 -260 -132 -518 -43 -804 274
-75 83 -125 145 -181 225 -44 63 -154 230 -174 266 -10 17 -23 39 -28 48 -135
217 -326 615 -490 1019 -46 112 -85 200 -87 195z m3262 -2066 c14 -3 52 -8 85
-11 50 -5 193 -31 282 -51 60 -14 199 -69 252 -100 219 -129 150 -286 -174
-395 -44 -15 -96 -30 -115 -34 -19 -3 -46 -8 -60 -11 -94 -19 -199 -35 -280
-41 -177 -15 -535 -9 -650 11 -14 2 -43 6 -65 9 -204 30 -425 108 -513 182
-35 30 -69 88 -67 114 1 8 3 24 3 36 6 81 218 197 447 245 33 7 62 13 65 14 3
1 30 5 60 9 30 5 62 10 70 11 8 2 53 6 100 10 47 4 87 9 89 10 5 6 443 -3 471
-8z"/>
<path d="M115 9151 c-22 -10 -49 -29 -61 -42 -47 -54 -51 -71 -53 -186 -2 -94
1 -118 17 -150 25 -48 57 -78 104 -98 34 -13 1019 -15 9878 -15 8859 0 9844 2
9878 15 47 20 79 50 103 97 27 54 27 232 0 286 -24 47 -56 77 -103 97 -34 13
-1018 15 -9880 15 -9548 0 -9844 -1 -9883 -19z"/>
<path d="M10580 7304 c-77 -23 -727 -205 -745 -208 -5 -1 -27 -8 -48 -15 l-38
-13 7 -96 c3 -54 9 -100 13 -103 3 -4 40 -12 81 -18 41 -6 98 -16 125 -21 28
-4 66 -11 85 -14 19 -4 55 -11 80 -16 25 -5 58 -11 74 -13 20 -2 30 -10 32
-23 4 -23 12 -392 19 -856 5 -313 2 -364 -19 -329 -14 21 -179 92 -271 115
-134 33 -239 47 -365 47 -104 0 -138 -3 -235 -21 -80 -15 -87 -17 -183 -49
-309 -103 -586 -331 -750 -616 -72 -126 -150 -332 -171 -452 -5 -32 -13 -74
-16 -93 -14 -77 -13 -375 1 -465 66 -423 290 -745 649 -932 214 -111 524 -156
748 -108 83 17 246 89 307 134 85 63 185 164 251 252 22 30 45 54 52 54 9 0
11 -49 9 -199 l-4 -199 44 -39 c24 -21 50 -38 58 -38 8 0 51 9 95 20 44 11 89
22 100 25 11 3 103 25 205 51 102 25 201 49 220 54 19 4 68 15 108 25 71 18
72 19 73 52 1 115 1 165 -3 168 -2 3 -84 25 -180 49 -97 24 -185 47 -196 50
-16 6 -19 17 -21 81 -1 41 -4 83 -6 94 -27 144 -27 2632 1 3437 l5 160 -48 39
c-26 21 -52 42 -58 45 -5 4 -44 -3 -85 -16z m-856 -1848 c17 -3 40 -8 52 -10
56 -11 136 -40 204 -74 87 -43 196 -144 254 -234 l36 -57 0 -666 0 -665 -27
-31 c-147 -167 -280 -256 -449 -299 -63 -16 -100 -19 -198 -16 -129 5 -142 7
-220 32 -196 64 -375 223 -474 419 -106 213 -142 524 -97 840 35 241 169 491
330 615 105 81 242 135 375 147 36 3 66 6 67 8 5 3 117 -3 147 -9z"/>
<path d="M70 6655 c-4 -5 -11 -55 -14 -110 -4 -54 -9 -102 -12 -106 -2 -4 10
-11 28 -15 41 -10 25 -6 203 -50 83 -20 151 -37 152 -38 20 -14 27 -401 25
-1366 -2 -999 -8 -1524 -20 -1579 -7 -33 -11 -36 -77 -53 -39 -9 -84 -20 -101
-22 -17 -3 -42 -10 -56 -15 -14 -5 -42 -12 -62 -15 -43 -7 -79 -24 -72 -34 2
-4 7 -47 10 -97 4 -49 9 -97 12 -106 4 -14 78 -15 710 -15 l707 1 3 55 c2 30
5 85 9 121 6 75 8 73 -88 85 -23 3 -67 9 -97 14 -64 11 -81 14 -214 35 -54 8
-102 17 -105 20 -4 2 -8 24 -10 49 -1 24 -4 55 -7 68 -3 13 -8 252 -11 531
l-5 509 33 -5 c36 -6 100 -14 164 -22 52 -7 332 -7 365 0 14 2 46 7 72 9 193
20 466 128 625 247 217 163 370 392 414 623 19 99 21 122 23 226 2 87 -11 226
-27 290 -2 8 -7 31 -11 50 -5 19 -13 41 -18 48 -6 6 -8 12 -5 12 10 0 -49 125
-87 184 -174 272 -516 442 -951 472 -156 11 -1496 10 -1505 -1z m1480 -290
c88 -24 216 -84 281 -133 199 -148 285 -359 284 -697 -1 -185 -20 -280 -83
-405 -85 -171 -256 -283 -492 -324 -85 -14 -325 -15 -400 -1 -71 14 -152 34
-158 40 -11 10 -5 1218 7 1524 l1 23 248 -5 c193 -3 261 -8 312 -22z"/>
<path d="M6415 5738 c-91 -12 -205 -43 -304 -83 -49 -19 -93 -35 -99 -35 -6 0
-12 -3 -14 -7 -1 -5 -34 -23 -73 -42 -184 -88 -395 -262 -450 -370 -98 -195
32 -365 285 -373 92 -3 210 11 211 25 1 7 2 48 4 92 4 106 14 233 20 270 20
109 67 176 140 197 54 15 165 18 250 6 272 -37 507 -229 553 -452 6 -27 11
-131 12 -231 l1 -181 -88 -29 c-48 -16 -90 -29 -93 -30 -11 -2 -116 -37 -135
-45 -11 -4 -171 -59 -355 -120 -459 -154 -542 -189 -667 -287 -190 -149 -239
-405 -121 -638 26 -51 105 -150 154 -194 170 -149 378 -225 619 -225 230 0
409 86 641 307 40 38 74 65 77 60 3 -5 17 -51 32 -102 43 -153 78 -206 165
-251 13 -7 58 -13 100 -13 64 0 95 7 205 45 243 85 360 129 369 138 6 6 10 51
11 100 0 83 -1 91 -20 95 -34 8 -298 56 -337 62 -42 6 -48 19 -65 133 -7 50
-9 529 -3 1140 1 152 -2 272 -9 315 -69 406 -399 681 -866 720 -38 4 -74 7
-80 9 -5 1 -37 -1 -70 -6z m535 -1799 l0 -322 -37 -41 c-171 -190 -422 -271
-628 -201 -109 37 -226 140 -277 245 -19 37 -23 62 -23 140 0 108 18 161 76
218 54 55 115 78 386 152 142 38 305 83 363 99 58 16 113 29 123 30 16 1 17
-21 17 -320z"/>
<path d="M12817 5745 c-1 -2 -38 -5 -82 -8 -91 -7 -98 -8 -203 -37 -83 -22
-81 -21 -192 -74 -305 -143 -568 -449 -675 -785 -37 -117 -58 -222 -71 -351
-6 -57 -5 -322 1 -360 2 -19 7 -51 9 -70 8 -62 35 -176 57 -241 172 -508 609
-819 1168 -833 439 -11 814 200 1032 580 l32 56 -29 26 c-16 14 -50 45 -75 69
l-46 45 -94 -95 c-200 -202 -371 -269 -664 -262 -151 3 -236 21 -344 72 -206
97 -371 287 -453 523 -27 78 -56 230 -64 333 l-6 87 885 0 886 0 -5 153 c-6
194 -6 196 -39 369 -8 42 -43 152 -64 206 -134 335 -438 558 -801 587 -107 9
-160 12 -163 10z m78 -269 c165 -14 308 -103 398 -246 69 -110 112 -281 116
-457 l2 -83 -639 0 c-351 0 -641 2 -644 5 -8 9 20 174 42 249 93 304 308 502
580 534 36 5 70 7 75 6 6 -1 37 -5 70 -8z"/>
<path d="M15597 5745 c-1 -2 -40 -5 -87 -9 -453 -33 -898 -404 -1058 -883 -57
-169 -76 -295 -76 -513 -1 -107 2 -220 6 -250 38 -294 162 -556 353 -745 94
-93 105 -102 199 -163 119 -77 326 -158 451 -175 22 -3 58 -9 79 -12 95 -16
266 -12 401 10 317 50 619 270 786 574 l24 43 -75 69 c-41 38 -77 68 -80 68
-3 0 -23 -22 -45 -47 -137 -161 -320 -269 -510 -301 -60 -10 -309 -8 -354 3
-62 15 -139 40 -180 59 -44 20 -144 81 -167 102 -99 89 -137 132 -188 208 -96
147 -149 320 -171 570 l-6 67 887 0 887 0 -7 168 c-7 197 -9 217 -38 342 -12
52 -22 97 -23 100 -13 69 -100 250 -158 329 -86 118 -222 231 -347 288 -51 24
-162 61 -200 68 -14 3 -36 7 -49 10 -36 7 -249 23 -254 20z m83 -269 c212 -21
386 -166 461 -384 34 -98 54 -250 50 -374 l-1 -28 -641 0 -642 0 7 63 c10 87
42 220 66 269 11 23 20 45 20 49 0 12 60 109 99 159 66 86 159 158 268 206 59
26 189 52 238 48 17 -2 50 -5 75 -8z"/>
<path d="M18768 5746 c-1 -2 -37 -6 -78 -10 -170 -14 -313 -70 -470 -185 -78
-57 -185 -159 -234 -223 -16 -21 -33 -38 -38 -38 -9 0 -6 92 7 215 15 135 17
125 -40 178 l-52 48 -159 -45 c-88 -24 -269 -75 -404 -112 -135 -36 -250 -71
-256 -75 -7 -6 -11 -46 -10 -106 l1 -96 105 -23 c58 -13 125 -28 150 -33 25
-6 57 -13 73 -15 46 -8 67 -17 68 -29 0 -7 2 -21 4 -32 3 -11 7 -45 10 -75 4
-30 8 -70 10 -89 16 -130 20 -314 19 -791 -1 -599 -12 -1619 -19 -1855 -3 -82
-7 -197 -9 -255 l-3 -105 -31 -12 c-17 -7 -45 -15 -64 -18 -18 -3 -76 -17
-129 -30 -89 -23 -132 -32 -152 -34 -4 -1 -6 -38 -3 -84 2 -45 5 -94 5 -109
l1 -28 700 0 700 0 1 33 c0 17 3 69 5 115 5 74 4 82 -13 83 -10 0 -25 2 -33 4
-16 3 -179 30 -245 40 -22 3 -47 7 -55 10 -8 2 -35 6 -60 9 -53 7 -92 14 -96
18 -12 13 -33 1098 -20 1098 3 0 45 -11 93 -26 178 -51 303 -69 498 -69 148 0
219 7 325 31 266 61 470 174 665 369 238 238 360 493 411 855 4 33 4 318 0
350 -2 14 -7 48 -10 75 -4 28 -9 57 -11 65 -2 8 -6 26 -9 40 -6 39 -46 170
-64 215 -67 162 -160 303 -277 421 -195 196 -429 305 -690 320 -49 3 -95 7
-102 9 -6 2 -13 2 -15 1z m-58 -420 c144 -13 278 -82 406 -210 120 -119 197
-253 248 -429 34 -115 41 -184 40 -372 -2 -334 -86 -584 -266 -783 -211 -233
-572 -300 -948 -175 -66 22 -107 42 -177 86 l-63 39 0 752 0 752 63 69 c149
163 295 239 532 277 22 4 78 2 165 -6z"/>
<path d="M3885 5720 c-16 -4 -106 -29 -200 -55 -93 -26 -201 -55 -240 -66 -38
-10 -133 -36 -210 -57 l-140 -39 0 -103 0 -103 58 -14 c32 -7 68 -15 80 -17
12 -2 45 -10 72 -16 28 -6 61 -14 75 -16 14 -3 33 -7 42 -10 9 -3 26 -7 39 -9
28 -6 26 -1 34 -70 3 -33 8 -73 10 -90 3 -26 9 -89 22 -245 4 -54 3 -904 -2
-1115 -4 -207 -14 -328 -28 -341 -9 -8 -149 -46 -217 -59 -3 -1 -40 -9 -82
-20 l-78 -19 5 -60 c3 -34 7 -80 9 -104 2 -23 7 -46 10 -50 4 -4 327 -7 717
-8 l709 0 1 55 c1 31 3 84 5 119 2 44 0 62 -9 63 -7 0 -23 2 -37 5 -81 13
-151 24 -190 29 -25 3 -56 8 -70 10 -14 2 -69 11 -124 19 -54 8 -100 16 -102
18 -4 5 -12 142 -20 353 -3 88 -8 187 -9 220 -2 33 -7 232 -10 443 l-7 383 37
72 c61 120 165 267 252 357 l82 85 33 -19 c140 -81 185 -97 297 -101 200 -8
347 98 367 266 33 270 -284 406 -589 253 -169 -85 -306 -234 -441 -476 -20
-38 -42 -68 -47 -68 -7 0 -8 31 -5 88 3 48 9 150 12 227 3 77 7 155 8 172 2
27 -5 41 -40 78 -24 25 -45 45 -46 44 -2 -1 -16 -4 -33 -9z"/>
</g>
</svg>
